<?xml version="1.0" encoding="utf-8"?>
<!-- Generator: Adobe Illustrator 21.0.2, SVG Export Plug-In . SVG Version: 6.00 Build 0)  -->
<svg version="1.1" id="Layer_1" xmlns="http://www.w3.org/2000/svg" xmlns:xlink="http://www.w3.org/1999/xlink" x="0px" y="0px"
	 viewBox="0 0 88 33.9" style="enable-background:new 0 0 88 33.9;" xml:space="preserve">
<style type="text/css">
	.st0{fill:#00E4AC;}
		
	#Path_24 {
		animation: left 2s infinite;
		-webkit-animation: left 2s infinite;
	}

	#right {
		animation: right 2s infinite;
		-webkit-animation: right 2s infinite;
	}

	
	@keyframes left {
		0% {
			transform: translateX(0);
		}
		30% {
			transform: translateX(-10px);
		}
		50% {
			transform: translateX(3px);
		}
		80% {
			transform: translateX(3px);
		}
		100% {
			transform: translateX(0);
		}
	}
	@-webkit-keyframes left {
		0% {
			transform: translateX(0);
		}
		30% {
			transform: translateX(-10px);
		}
		50% {
			transform: translateX(3px);
		}
		80% {
			transform: translateX(3px);
		}
		100% {
			transform: translateX(0);
		}
	}

	@keyframes right {
		0% {
			transform: translateX(0);
		}
		30% {
			transform: translateX(10px);
		}
		50% {
			transform: translateX(-3px);
		}
		80% {
			transform: translateX(-3px);
		}
		100% {
			transform: translateX(0);
		}
	}
	@-webkit-keyframes right {
		0% {
			transform: translateX(0);
		}
		30% {
			transform: translateX(10px);
		}
		50% {
			transform: translateX(-3px);
		}
		80% {
			transform: translateX(-3px);
		}
		100% {
			transform: translateX(0);
		}
	}
</style>
<path id="Path_24" class="st0" d="M30.6,25.2c-2.8,0-4.8-0.6-6.1-1.8c-1.3-1.1-2-3.1-2-5.9V8.9c0-2.7,0.6-4.7,2-5.9s3.4-1.8,6.1-1.8
	h18.7l-2.9,3.6H30.1c-1-0.1-1.9,0.2-2.7,0.8c-0.6,0.6-0.9,1.4-0.9,2.3v10.5c-0.1,0.9,0.3,1.7,0.9,2.3c0.8,0.6,1.7,0.9,2.7,0.8h3.9
	l-3,3.6H30.6z"/>
<path id="right" class="st0" d="M63.3,3.1c-1.3-1.1-3.4-1.8-6.1-1.8h-0.9h-0.3h-1l-26,32h4.1L56.2,4.9h1.4c1-0.1,1.9,0.2,2.7,0.8
	c0.6,0.6,0.9,1.4,0.9,2.3v10.5c0.1,0.9-0.3,1.7-0.9,2.3c-0.8,0.6-1.7,0.9-2.7,0.8h-9.3l-2.9,3.6h11.7c2.8,0,4.8-0.6,6.1-1.8
	s2-3.1,2-5.9V8.9C65.3,6.2,64.6,4.2,63.3,3.1z"/>
</svg>
