<svg xmlns="http://www.w3.org/2000/svg" viewBox="89 41 216.3 41.559">
  <defs>
    <style>
      .cls-1 {
        fill: #fff;
      }

      .cls-2 {
        fill: #00e4ac;
      }
    </style>
  </defs>
  <g id="Group_4" data-name="Group 4" transform="translate(89 41)">
    <path id="Path_14" data-name="Path 14" class="cls-1" d="M160.111,50.4c-2.763,0-4.809-.574-6.137-1.759C152.646,47.495,152,45.521,152,42.757V34.144c0-2.728.646-4.7,1.974-5.886s3.374-1.759,6.137-1.759h6.173v3.589h-6.639a3.832,3.832,0,0,0-2.692.825,3.082,3.082,0,0,0-.9,2.261V43.691a2.846,2.846,0,0,0,.9,2.261,3.669,3.669,0,0,0,2.692.825h6.639v3.589h-6.173Z" transform="translate(-97.449 -16.99)"/>
    <path id="Path_15" data-name="Path 15" class="cls-1" d="M218.191,48.643c-1.328,1.184-3.374,1.759-6.137,1.759h-1.543c-2.763,0-4.809-.574-6.137-1.759s-1.974-3.122-1.974-5.886V34.144c0-2.728.646-4.7,1.974-5.886s3.374-1.759,6.137-1.759h1.579c2.763,0,4.809.574,6.137,1.759s1.974,3.122,1.974,5.886v8.613C220.2,45.521,219.519,47.459,218.191,48.643Zm-2.046-15.432a2.846,2.846,0,0,0-.9-2.261,3.669,3.669,0,0,0-2.692-.825h-2.548a3.832,3.832,0,0,0-2.692.825,3.082,3.082,0,0,0-.9,2.261V43.726a2.846,2.846,0,0,0,.9,2.261,3.669,3.669,0,0,0,2.692.825h2.548a3.832,3.832,0,0,0,2.692-.825,3.082,3.082,0,0,0,.9-2.261Z" transform="translate(-129.762 -16.99)"/>
    <path id="Path_16" data-name="Path 16" class="cls-1" d="M277.989,33.412V32.3a6.608,6.608,0,0,1-3.8,1.113h-1.974c-2.763,0-4.809-.574-6.137-1.759-1.328-1.148-1.974-3.122-1.974-5.886V17.155c0-2.728.646-4.7,1.974-5.886s3.374-1.759,6.137-1.759h5.527V0h4.055V33.412Zm-1.866-3.84a3.33,3.33,0,0,0,.969-.682,2.1,2.1,0,0,0,.5-.861,2.5,2.5,0,0,0,.144-.825V13.135h-6.029a3.832,3.832,0,0,0-2.692.825,3.082,3.082,0,0,0-.9,2.261V26.737a2.846,2.846,0,0,0,.9,2.261,3.669,3.669,0,0,0,2.692.825h2.907A3.165,3.165,0,0,0,276.123,29.572Z" transform="translate(-169.318)"/>
    <path id="Path_17" data-name="Path 17" class="cls-1" d="M335.711,50.4c-2.763,0-4.809-.574-6.137-1.759-1.328-1.148-1.974-3.122-1.974-5.886V34.144c0-2.728.574-4.7,1.759-5.886s3.122-1.759,5.886-1.759h2.261a6.667,6.667,0,0,1,5.168,1.9,7.87,7.87,0,0,1,1.723,5.491V40.1h-12.7v3.589a2.846,2.846,0,0,0,.9,2.261,3.669,3.669,0,0,0,2.692.825h7.608v3.589h-7.178Zm-4.055-13.817h8.757V33a2.82,2.82,0,0,0-2.871-2.871h-2.763a3.055,3.055,0,0,0-2.476.825,3.673,3.673,0,0,0-.646,2.261Z" transform="translate(-210.029 -16.99)"/>
    <path id="Path_18" data-name="Path 18" class="cls-1" d="M387.2,58.613V26.6H391v1.148a4.815,4.815,0,0,1,1.759-.9,7.61,7.61,0,0,1,2.046-.251h1.723c2.763,0,4.809.574,6.137,1.759,1.328,1.148,1.974,3.122,1.974,5.886v8.613c0,2.728-.646,4.7-1.974,5.886s-3.374,1.759-6.137,1.759H391.22v8.111Zm5.67-28.137a3.331,3.331,0,0,0-.969.682,2.227,2.227,0,0,0-.5.825,2.356,2.356,0,0,0-.144.825v14.1h5.778a3.832,3.832,0,0,0,2.692-.825,3.082,3.082,0,0,0,.9-2.261V33.275a2.846,2.846,0,0,0-.9-2.261,3.669,3.669,0,0,0-2.692-.825h-2.692A3.581,3.581,0,0,0,392.87,30.476Z" transform="translate(-248.24 -17.054)"/>
    <path id="Path_19" data-name="Path 19" class="cls-1" d="M160.111,50.4c-2.763,0-4.809-.574-6.137-1.759C152.646,47.495,152,45.521,152,42.757V34.144c0-2.728.646-4.7,1.974-5.886s3.374-1.759,6.137-1.759h6.173v3.589h-6.639a3.832,3.832,0,0,0-2.692.825,3.082,3.082,0,0,0-.9,2.261V43.691a2.846,2.846,0,0,0,.9,2.261,3.669,3.669,0,0,0,2.692.825h6.639v3.589h-6.173Z" transform="translate(-97.449 -16.99)"/>
    <path id="Path_20" data-name="Path 20" class="cls-1" d="M387.2,58.613V26.6H391v1.148a4.815,4.815,0,0,1,1.759-.9,7.61,7.61,0,0,1,2.046-.251h1.723c2.763,0,4.809.574,6.137,1.759,1.328,1.148,1.974,3.122,1.974,5.886v8.613c0,2.728-.646,4.7-1.974,5.886s-3.374,1.759-6.137,1.759H391.22v8.111Zm5.67-28.137a3.331,3.331,0,0,0-.969.682,2.227,2.227,0,0,0-.5.825,2.356,2.356,0,0,0-.144.825v14.1h5.778a3.832,3.832,0,0,0,2.692-.825,3.082,3.082,0,0,0,.9-2.261V33.275a2.846,2.846,0,0,0-.9-2.261,3.669,3.669,0,0,0-2.692-.825h-2.692A3.581,3.581,0,0,0,392.87,30.476Z" transform="translate(-248.24 -17.054)"/>
    <path id="Path_21" data-name="Path 21" class="cls-1" d="M464.027,48.643c-1.328,1.184-3.374,1.759-6.137,1.759h-1.579c-2.763,0-4.809-.574-6.137-1.759s-1.974-3.122-1.974-5.886V34.144c0-2.728.646-4.7,1.974-5.886s3.374-1.759,6.137-1.759h1.579c2.763,0,4.809.574,6.137,1.759S466,31.381,466,34.144v8.613C466.037,45.521,465.355,47.459,464.027,48.643Zm-2.082-15.432a2.846,2.846,0,0,0-.9-2.261,3.669,3.669,0,0,0-2.692-.825h-2.548a3.832,3.832,0,0,0-2.692.825,3.082,3.082,0,0,0-.9,2.261V43.726a2.846,2.846,0,0,0,.9,2.261,3.669,3.669,0,0,0,2.692.825h2.548a3.832,3.832,0,0,0,2.692-.825,3.082,3.082,0,0,0,.9-2.261Z" transform="translate(-287.348 -16.99)"/>
    <path id="Path_22" data-name="Path 22" class="cls-1" d="M522.633,49.066a8.5,8.5,0,0,1-5.311,1.436h-7.106V46.913h7.608c1.759,0,2.62-.718,2.62-2.153V42.211q0-2.153-2.046-2.153h-1.759a7.547,7.547,0,0,1-4.953-1.4c-1.113-.933-1.687-2.476-1.687-4.666v-1.4c0-2.225.61-3.8,1.866-4.666a9.009,9.009,0,0,1,5.311-1.328h6.388v3.589h-6.891a3.217,3.217,0,0,0-1.9.538,1.854,1.854,0,0,0-.754,1.615v1.723a1.884,1.884,0,0,0,.682,1.651,2.781,2.781,0,0,0,1.615.5h1.615a6.93,6.93,0,0,1,4.881,1.543,6.015,6.015,0,0,1,1.687,4.594v2.153A5.369,5.369,0,0,1,522.633,49.066Z" transform="translate(-326.969 -17.054)"/>
    <path id="Path_23" data-name="Path 23" class="cls-1" d="M568.946,40.208a4.448,4.448,0,0,1-3.768-1.615,6.573,6.573,0,0,1-1.256-4.127V19.931H559.4V16.342h4.522V10.6h4.055v5.742h6.962v3.589h-6.962V34.753a1.831,1.831,0,0,0,.538,1.507,2.56,2.56,0,0,0,1.615.395h4.809v3.589h-5.993Z" transform="translate(-358.64 -6.796)"/>
    <path id="Path_24" data-name="Path 24" class="cls-2" d="M8.111,50.466c-2.763,0-4.809-.574-6.137-1.759C.646,47.595,0,45.621,0,42.857V34.244c0-2.728.646-4.7,1.974-5.886S5.347,26.6,8.111,26.6h18.7l-2.943,3.589H7.644a3.832,3.832,0,0,0-2.692.825,3.082,3.082,0,0,0-.9,2.261V43.791a2.846,2.846,0,0,0,.9,2.261,3.669,3.669,0,0,0,2.692.825h3.912L8.577,50.466H8.111Z" transform="translate(0 -17.054)"/>
    <path id="Path_25" data-name="Path 25" class="cls-2" d="M47.011,28.251,22.355,58.613H18.3L44.283,26.6h1.256" transform="translate(-11.732 -17.054)"/>
    <g id="Group_3" data-name="Group 3" transform="translate(22.933 9.546)">
      <path id="Path_26" data-name="Path 26" class="cls-2" d="M81.772,28.359C80.445,27.21,78.4,26.6,75.636,26.6H74.523v3.589H76.1a3.832,3.832,0,0,1,2.692.825,3.082,3.082,0,0,1,.9,2.261V43.791a2.846,2.846,0,0,1-.9,2.261,3.669,3.669,0,0,1-2.692.825h-9.3L63.9,50.466H75.6c2.763,0,4.809-.574,6.137-1.759s1.974-3.122,1.974-5.886V34.208C83.746,31.481,83.1,29.507,81.772,28.359Z" transform="translate(-63.9 -26.6)"/>
    </g>
  </g>
</svg>
